HIERARCHY
ROOT Hips
{
  OFFSET 49.8619 54.0657 1.83676
  CHANNELS 6 Xposition Yposition Zposition Zrotation Xrotation Yrotation
  JOINT spine
  {
    OFFSET 0 7.80059 0.448573
    CHANNELS 3 Zrotation Xrotation Yrotation
    JOINT spine1
    {
      OFFSET 0 10.1364 0
      CHANNELS 3 Zrotation Xrotation Yrotation
      JOINT spine2
      {
        OFFSET 0 9.71251 0
        CHANNELS 3 Zrotation Xrotation Yrotation
        JOINT Neck
        {
          OFFSET 0 24.9361 1.18887
          CHANNELS 3 Zrotation Xrotation Yrotation
          JOINT Head
          {
            OFFSET 0 7.53384 0
            CHANNELS 3 Zrotation Xrotation Yrotation
            End Site
            {
              OFFSET 0 18.2361 -6.01402
            }
          }
        }
        JOINT RightShoulder
        {
          OFFSET -4.08965 10.4888 -0.569457
          CHANNELS 3 Zrotation Xrotation Yrotation
          JOINT RightArm
          {
            OFFSET 0 13.757 0
            CHANNELS 3 Zrotation Xrotation Yrotation
            JOINT RightArmRoll
            {
              OFFSET 0 6.94478 0
              CHANNELS 3 Zrotation Xrotation Yrotation
              JOINT RightForeArm
              {
                OFFSET 0 20.2277 0
                CHANNELS 3 Zrotation Xrotation Yrotation
                JOINT RightForeArmRoll
                {
                  OFFSET 0 7.79312 0
                  CHANNELS 3 Zrotation Xrotation Yrotation
                  JOINT RightHand
                  {
                    OFFSET 0 15.6391 0
                    CHANNELS 3 Zrotation Xrotation Yrotation
                    End Site
                    {
                      OFFSET 0 0 0
                    }
                  }
                }
              }
            }
          }
        }
        JOINT LeftShoulder
        {
          OFFSET 4.08965 10.4888 -0.569457
          CHANNELS 3 Zrotation Xrotation Yrotation
          JOINT LeftArm
          {
            OFFSET 0 13.757 0
            CHANNELS 3 Zrotation Xrotation Yrotation
            JOINT LeftArmRoll
            {
              OFFSET 0 6.94478 0
              CHANNELS 3 Zrotation Xrotation Yrotation
              JOINT LeftForeArm
              {
                OFFSET 0 20.2277 0
                CHANNELS 3 Zrotation Xrotation Yrotation
                JOINT LeftForeArmRoll
                {
                  OFFSET 0 7.79312 0
                  CHANNELS 3 Zrotation Xrotation Yrotation
                  JOINT LeftHand
                  {
                    OFFSET 0 15.6391 0
                    CHANNELS 3 Zrotation Xrotation Yrotation
                    End Site
                    {
                      OFFSET 0 0 0
                    }
                  }
                }
              }
            }
          }
        }
      }
    }
  }
  JOINT RightUpLeg
  {
    OFFSET -6.91416 -1.26788 -1.06358
    CHANNELS 3 Zrotation Xrotation Yrotation
    JOINT RightUpLegRoll
    {
      OFFSET 0 18.3378 0
      CHANNELS 3 Zrotation Xrotation Yrotation
      JOINT RightLeg
      {
        OFFSET 0 -22.7085 0
        CHANNELS 3 Zrotation Xrotation Yrotation
        JOINT RightLegRoll
        {
          OFFSET 0 22.7828 0
          CHANNELS 3 Zrotation Xrotation Yrotation
          JOINT RightFoot
          {
            OFFSET 0 18.9629 0
            CHANNELS 3 Zrotation Xrotation Yrotation
            JOINT RightToeBase
            {
              OFFSET 0 15.852 0
              CHANNELS 3 Zrotation Xrotation Yrotation
              End Site
              {
                OFFSET 0.00671906 7.677 -0.884893
              }
            }
          }
        }
      }
    }
  }
  JOINT LeftUpLeg
  {
    OFFSET 6.91416 -1.26788 -1.06358
    CHANNELS 3 Zrotation Xrotation Yrotation
    JOINT LeftUpLegRoll
    {
      OFFSET 0 18.3379 0
      CHANNELS 3 Zrotation Xrotation Yrotation
      JOINT LeftLeg
      {
        OFFSET 0 22.7084 0
        CHANNELS 3 Zrotation Xrotation Yrotation
        JOINT LeftLegRoll
        {
          OFFSET 0 22.9934 0
          CHANNELS 3 Zrotation Xrotation Yrotation
          JOINT LeftFoot
          {
            OFFSET 0 18.7522 0
            CHANNELS 3 Zrotation Xrotation Yrotation
            JOINT LeftToeBase
            {
              OFFSET 0 15.852 0
              CHANNELS 3 Zrotation Xrotation Yrotation
              End Site
              {
                OFFSET -0.030112 7.67701 -0.884892
              }
            }
          }
        }
      }
    }
  }
}
MOTION
Frames: 14
Frame Time: 0.00208333
49.5319 52.8106 2.14233 -0.101268 -6.53814 22.1703 1.02363 5.56353 -0.660948 2.16604 15.1146 -1.57652 2.19638 16.7587 -1.61994 -15.3925 7.40025 -2.58465 12.444 2.82503 -5.08583 54.4981 -7.20056 -4.29872 124.321 23.3138 -42.6389 -2.79269e-005 -1.45415e-005 -1.19237e-005 16.999 73.9697 -15.6463 -6.89023e-006 4.3487e-006 -3 8.03051 -4.95113 0.697624 -55.4551 -7.75584 4.70675 -122.635 21.9346 33.3996 -1.31198e-014 0 3.18055e-015 -15.5553 69.2756 16.2604 7.82362e-006 2.79047e-006 3.00001 -8.03018 -4.95122 -0.697642 161.096 83.3299 22.4752 180 7.01477e-015 178.653 -23.7578 80.1954 24.9696 4.17324e-007 -3.52577e-006 1.75807 -19.4638 72.2987 23.5405 8.13649 25.2327 -3.48774 139.036 82.4841 32.2393 4.54188e-006 -4.6773e-006 -2.12143 138.07 -84.8581 136.399 3.89412e-006 3.60998e-006 -2.54737 26.5001 67.3658 -18.9354 -8.13707 25.2412 3.48908 
49.5377 52.8034 2.17159 -0.0801366 -6.64141 22.192 1.01965 5.55783 -0.662827 2.1584 15.1032 -1.57905 2.18872 16.7474 -1.62234 -15.2947 7.41458 -2.61059 12.3975 2.78618 -5.09113 54.6088 -7.1971 -4.30076 124.242 23.3585 -42.5734 -2.79269e-005 -1.45415e-005 -1.19237e-005 17.0397 73.8813 -15.6487 -6.89023e-006 4.3487e-006 -3 8.03051 -4.95113 0.697624 -55.4523 -7.73779 4.69462 -122.654 21.9413 33.3661 1.09332e-014 -1.59028e-015 3.18055e-015 -15.5508 69.1865 16.2275 7.82362e-006 2.79047e-006 3.00001 -8.03018 -4.95122 -0.697642 161.372 83.224 22.2099 180 7.01477e-015 178.652 -23.8048 80.2083 25.0141 4.17324e-007 -3.52577e-006 1.75788 -19.4452 72.2908 23.5301 8.13649 25.2327 -3.48774 139.386 82.3895 31.9054 4.54188e-006 -4.6773e-006 -2.12302 137.851 -84.8652 136.171 3.89412e-006 3.60998e-006 -2.5465 26.4743 67.3462 -18.9162 -8.13707 25.2412 3.48908 
49.5243 52.8183 2.12198 -0.0591873 -6.74414 22.2138 1.01578 5.5521 -0.66461 2.15098 15.0918 -1.58141 2.18129 16.7359 -1.62457 -15.1975 7.42924 -2.63627 12.3518 2.74716 -5.09632 54.7188 -7.19352 -4.3027 124.161 23.403 -42.5084 -2.79269e-005 -1.45415e-005 -1.19237e-005 17.0799 73.7939 -15.6508 -6.89023e-006 4.3487e-006 -3 8.03051 -4.95113 0.697624 -55.451 -7.71871 4.68185 -122.67 21.9474 33.3323 -4.57205e-015 -1.59028e-015 1.59028e-015 -15.5467 69.0989 16.1955 7.82362e-006 2.79047e-006 3.00001 -8.03018 -4.95122 -0.697642 161.638 83.1183 21.9558 180 7.01476e-015 178.651 -23.8504 80.2214 25.0571 4.17324e-007 -3.52577e-006 1.75781 -19.4278 72.2832 23.52 8.13649 25.2327 -3.48774 139.725 82.2948 31.5823 4.54188e-006 -4.6773e-006 -2.12464 137.634 -84.8722 135.945 3.89412e-006 3.60998e-006 -2.54568 26.4491 67.327 -18.8975 -8.13707 25.2412 3.48908 
49.5188 52.8078 2.12555 -0.0383785 -6.84641 22.2355 1.01201 5.54635 -0.6663 2.14374 15.0803 -1.58361 2.17403 16.7245 -1.62665 -15.1011 7.44432 -2.66161 12.3067 2.70797 -5.10131 54.8282 -7.18973 -4.30449 124.078 23.4472 -42.4437 -2.79269e-005 -1.45415e-005 -1.19237e-005 17.1194 73.707 -15.6526 -6.89023e-006 4.3487e-006 -3 8.03051 -4.95113 0.697624 -55.4511 -7.69875 4.66854 -122.685 21.953 33.2978 -1.05356e-014 3.18055e-015 3.18055e-015 -15.5426 69.0125 16.164 7.82362e-006 2.79047e-006 3.00001 -8.03018 -4.95122 -0.697642 161.893 83.0126 21.7115 180 7.01476e-015 178.649 -23.8948 80.2344 25.0986 4.17324e-007 -3.52577e-006 1.75783 -19.4114 72.2759 23.5105 8.13649 25.2327 -3.48774 140.055 82.2001 31.2683 4.54188e-006 -4.6773e-006 -2.12629 137.418 -84.8789 135.721 3.89412e-006 3.60998e-006 -2.54491 26.4244 67.3083 -18.8792 -8.13707 25.2412 3.48908 
49.5276 52.8079 2.12655 -0.0176645 -6.94826 22.257 1.0083 5.54057 -0.667899 2.1366 15.0688 -1.58566 2.16688 16.713 -1.62858 -15.0055 7.45987 -2.68651 12.2621 2.66862 -5.10605 54.9371 -7.18567 -4.30609 123.995 23.4912 -42.3792 -2.79269e-005 -1.45415e-005 -1.19237e-005 17.1584 73.6203 -15.6538 -6.89023e-006 4.3487e-006 -3 8.03051 -4.95113 0.697624 -55.4525 -7.67806 4.65478 -122.699 21.9581 33.2625 -3.37934e-014 7.95139e-015 6.36111e-015 -15.5384 68.927 16.1328 7.82362e-006 2.79047e-006 3.00001 -8.03018 -4.95122 -0.697642 162.141 82.9069 21.4758 180 7.01476e-015 178.648 -23.9381 80.2473 25.1392 4.17324e-007 -3.52577e-006 1.75791 -19.396 72.269 23.5015 8.13649 25.2327 -3.48774 140.378 82.1054 30.9619 4.54188e-006 -4.6773e-006 -2.12795 137.205 -84.8853 135.498 3.89412e-006 3.60998e-006 -2.54419 26.4003 67.2901 -18.8614 -8.13707 25.2412 3.48908 
49.5092 52.8177 2.09928 0.00299543 -7.04975 22.2781 1.00465 5.53479 -0.669412 2.12954 15.0573 -1.58759 2.15979 16.7014 -1.63038 -14.9107 7.47598 -2.71087 12.2178 2.62913 -5.11048 55.0454 -7.18125 -4.30744 123.911 23.5351 -42.3147 -2.79269e-005 -1.45415e-005 -1.19237e-005 17.1967 73.5333 -15.6543 -6.89023e-006 4.3487e-006 -3 8.03051 -4.95113 0.697624 -55.4549 -7.6568 4.64069 -122.711 21.9627 33.2261 -3.97569e-015 1.59028e-015 1.59028e-015 -15.5339 68.8424 16.1016 7.82362e-006 2.79047e-006 3.00001 -8.03018 -4.95122 -0.697642 162.381 82.8014 21.2477 180 7.01475e-015 178.647 -23.9806 80.2599 25.1788 4.17324e-007 -3.52577e-006 1.75804 -19.3814 72.2627 23.4932 8.13649 25.2327 -3.48774 140.694 82.0108 30.6614 4.54188e-006 -4.6773e-006 -2.12962 136.994 -84.8911 135.279 3.89412e-006 3.60998e-006 -2.54349 26.3769 67.2725 -18.8443 -8.13707 25.2412 3.48908 
49.5121 52.8256 2.09378 0.0236429 -7.15094 22.2987 1.00104 5.529 -0.670842 2.12248 15.0457 -1.5894 2.15271 16.6899 -1.63207 -14.8168 7.49271 -2.7346 12.1738 2.58949 -5.11452 55.1532 -7.17639 -4.30849 123.826 23.5787 -42.2499 -2.79269e-005 -1.45415e-005 -1.19237e-005 17.2343 73.4456 -15.6539 -6.89023e-006 4.3487e-006 -3 8.03051 -4.95113 0.697624 -55.4583 -7.63514 4.62637 -122.722 21.9668 33.1884 -1.17283e-014 -3.18055e-015 3.18055e-015 -15.5287 68.7583 16.0701 7.82362e-006 2.79047e-006 3.00001 -8.03018 -4.95122 -0.697642 162.615 82.6959 21.026 180 7.01475e-015 178.645 -24.0222 80.2719 25.2179 4.17324e-007 -3.52577e-006 1.75818 -19.3676 72.2569 23.4856 8.13649 25.2327 -3.48774 141.005 81.9164 30.3653 4.54188e-006 -4.6773e-006 -2.13129 136.786 -84.8964 135.062 3.89412e-006 3.60998e-006 -2.54282 26.3541 67.2556 -18.8279 -8.13707 25.2412 3.48908 
49.5003 52.8295 2.07459 0.0443176 -7.2519 22.3186 0.99744 5.52322 -0.672192 2.11538 15.0342 -1.59111 2.14559 16.6784 -1.63365 -14.7239 7.51013 -2.7576 12.1298 2.54973 -5.1181 55.2605 -7.17101 -4.3092 123.742 23.6221 -42.1847 -2.79269e-005 -1.45415e-005 -1.19237e-005 17.2713 73.3569 -15.6526 -6.89023e-006 4.3487e-006 -3 8.03051 -4.95113 0.697624 -55.4624 -7.61322 4.6119 -122.733 21.9704 33.1492 -3.57812e-015 -1.59028e-015 3.18055e-015 -15.5227 68.6747 16.0381 7.82362e-006 2.79047e-006 3.00001 -8.03018 -4.95122 -0.697642 162.844 82.5905 20.8097 180 7.01474e-015 178.644 -24.0633 80.2832 25.2565 4.17324e-007 -3.52577e-006 1.75831 -19.3545 72.2519 23.4788 8.13649 25.2327 -3.48774 141.313 81.8224 30.0722 4.54188e-006 -4.6773e-006 -2.13296 136.582 -84.901 134.849 3.89412e-006 3.60998e-006 -2.54218 26.3321 67.2395 -18.8121 -8.13707 25.2412 3.48908 
49.4964 52.8287 2.09139 0.0650592 -7.35266 22.3377 0.993836 5.51744 -0.673466 2.10819 15.0227 -1.59273 2.13838 16.6669 -1.63515 -14.6321 7.52831 -2.77978 12.0858 2.50985 -5.12117 55.3674 -7.16504 -4.30952 123.659 23.6654 -42.119 -2.79269e-005 -1.45415e-005 -1.19237e-005 17.3075 73.2667 -15.6502 -6.89023e-006 4.3487e-006 -3 8.03051 -4.95113 0.697624 -55.4671 -7.5912 4.5974 -122.743 21.9735 33.1082 8.54774e-015 -4.77083e-015 -0 -15.5156 68.5911 16.0054 7.82362e-006 2.79047e-006 3.00001 -8.03018 -4.95122 -0.697642 163.068 82.4852 20.598 180 7.01474e-015 178.643 -24.1039 80.2936 25.295 4.17324e-007 -3.52577e-006 1.75842 -19.3421 72.2476 23.4729 8.13649 25.2327 -3.48774 141.619 81.7287 29.7807 4.54188e-006 -4.6773e-006 -2.13462 136.381 -84.9049 134.639 3.89412e-006 3.60998e-006 -2.54155 26.3108 67.2243 -18.7972 -8.13707 25.2412 3.48908 
49.4988 52.8244 2.08205 0.0859056 -7.45331 22.3558 0.990208 5.51168 -0.674667 2.10086 15.0112 -1.59428 2.13102 16.6554 -1.63657 -14.5413 7.54733 -2.80104 12.0415 2.46987 -5.12366 55.4738 -7.1584 -4.3094 123.577 23.7085 -42.0525 -2.79269e-005 -1.45415e-005 -1.19237e-005 17.343 73.1747 -15.6465 -6.89023e-006 4.3487e-006 -3 8.03051 -4.95113 0.697624 -55.4722 -7.56925 4.58297 -122.754 21.9762 33.0653 -1.2921e-014 3.18055e-015 1.59028e-015 -15.5073 68.5076 15.9716 7.82362e-006 2.79047e-006 3.00001 -8.03018 -4.95122 -0.697642 163.288 82.3799 20.3899 180 7.01474e-015 178.641 -24.1442 80.3029 25.3335 4.17324e-007 -3.52577e-006 1.75847 -19.3302 72.2443 23.468 8.13649 25.2327 -3.48774 141.925 81.6354 29.4894 4.54188e-006 -4.6773e-006 -2.13625 136.184 -84.9078 134.434 3.89412e-006 3.60998e-006 -2.54092 26.2903 67.21 -18.7831 -8.13707 25.2412 3.48908 
49.4934 52.8338 2.07843 0.106895 -7.55389 22.3728 0.986538 5.50595 -0.675799 2.09332 14.9998 -1.59576 2.12345 16.644 -1.63792 -14.4517 7.56726 -2.82129 11.997 2.42978 -5.12549 55.5798 -7.15101 -4.30879 123.496 23.7514 -41.9851 -2.79269e-005 -1.45415e-005 -1.19237e-005 17.3779 73.0804 -15.6414 -6.89023e-006 4.3487e-006 -3 8.03051 -4.95113 0.697624 -55.4777 -7.54752 4.5687 -122.764 21.9783 33.0203 2.5842e-015 0 -0 -15.4975 68.4237 15.9366 7.82362e-006 2.79047e-006 3.00001 -8.03018 -4.95122 -0.697642 163.506 82.2748 20.1846 180 7.01473e-015 178.64 -24.1843 80.311 25.3723 4.17324e-007 -3.52577e-006 1.75844 -19.3188 72.2419 23.4642 8.13649 25.2327 -3.48774 142.23 81.5426 29.1971 4.54188e-006 -4.6773e-006 -2.13787 135.993 -84.9098 134.233 3.89412e-006 3.60998e-006 -2.54029 26.2706 67.1967 -18.77 -8.13707 25.2412 3.48908 
49.4861 52.8444 2.06174 0.128063 -7.65447 22.3886 0.982806 5.50025 -0.676865 2.08553 14.9884 -1.59721 2.11563 16.6326 -1.63923 -14.3634 7.58817 -2.84042 11.9519 2.3896 -5.12661 55.6855 -7.14279 -4.30765 123.417 23.7943 -41.9165 -2.79269e-005 -1.45415e-005 -1.19237e-005 17.4119 72.9834 -15.6348 -6.89023e-006 4.3487e-006 -3 8.03051 -4.95113 0.697624 -55.4832 -7.52617 4.5547 -122.776 21.9799 32.9728 -5.1684e-015 -4.77083e-015 1.59028e-015 -15.4859 68.3395 15.9001 7.82362e-006 2.79047e-006 3.00001 -8.03018 -4.95122 -0.697642 163.721 82.1697 19.9812 180 7.01473e-015 178.638 -24.2244 80.3177 25.4116 4.17324e-007 -3.52577e-006 1.75831 -19.3079 72.2406 23.4615 8.13649 25.2327 -3.48774 142.538 81.4505 28.9024 4.54188e-006 -4.6773e-006 -2.13945 135.806 -84.9106 134.038 3.89412e-006 3.60998e-006 -2.53966 26.2518 67.1845 -18.7578 -8.13707 25.2412 3.48908 
49.4927 52.8394 2.07411 0.149312 -7.75564 22.4031 0.979038 5.49466 -0.677845 2.07748 14.9773 -1.59858 2.10755 16.6215 -1.64046 -14.2749 7.61043 -2.85827 11.9049 2.3483 -5.12663 55.791 -7.13346 -4.30579 123.339 23.8365 -41.8472 -2.79269e-005 -1.45415e-005 -1.19237e-005 17.4459 72.8848 -15.6275 -6.89023e-006 4.3487e-006 -3 8.03051 -4.95113 0.697624 -55.4887 -7.5048 4.54068 -122.787 21.9803 32.9227 4.37326e-015 -1.59028e-015 1.59028e-015 -15.4729 68.2557 15.8625 7.82362e-006 2.79047e-006 3.00001 -8.03018 -4.95122 -0.697642 163.938 82.064 19.7772 180 7.01472e-015 178.637 -24.2649 80.3232 25.4518 4.17324e-007 -3.52577e-006 1.75811 -19.2975 72.2404 23.46 8.13649 25.2327 -3.48774 142.849 81.3583 28.6033 4.54188e-006 -4.6773e-006 -2.14101 135.623 -84.9103 133.845 3.89412e-006 3.60998e-006 -2.53901 26.2338 67.1734 -18.7465 -8.13707 25.2412 3.48908 
49.4881 52.8343 2.07361 0.170519 -7.8578 22.4164 0.975276 5.48923 -0.678718 2.06923 14.9665 -1.59984 2.09927 16.6107 -1.64158 -14.1855 7.63425 -2.87481 11.855 2.30514 -5.12532 55.8964 -7.12291 -4.30314 123.261 23.8776 -41.7775 -2.79269e-005 -1.45415e-005 -1.19237e-005 17.4803 72.786 -15.6203 -6.89023e-006 4.3487e-006 -3 8.03051 -4.95113 0.697624 -55.4942 -7.48293 4.52631 -122.798 21.9786 32.8699 -2.04748e-014 3.18055e-015 6.36111e-015 -15.4588 68.1734 15.8246 7.82362e-006 2.79047e-006 3.00001 -8.03018 -4.95122 -0.697642 164.156 81.9572 19.5717 180 7.01472e-015 178.636 -24.3058 80.3278 25.4927 4.17324e-007 -3.52577e-006 1.75788 -19.2878 72.2411 23.4595 8.13649 25.2327 -3.48774 143.165 81.2656 28.2995 4.54188e-006 -4.6773e-006 -2.14255 135.44 -84.9089 133.653 3.89412e-006 3.60998e-006 -2.53837 26.2164 67.1633 -18.736 -8.13707 25.2412 3.48908 
